<svg viewBox="0 0 512 512" xmlns="http://www.w3.org/2000/svg"><path d="m155.675781 127.953125c5.523438 0 10-4.476563 10-10s-4.476562-10-10-10h-.007812c-5.523438 0-9.996094 4.476563-9.996094 10s4.480469 10 10.003906 10zm0 0"/><path d="m512 152.445312v-110.078124c0-23.359376-19.007812-42.367188-42.367188-42.367188h-240.402343c-23.363281 0-42.371094 19.007812-42.371094 42.367188v105.578124h-114.863281c-5.519532 0-10 4.476563-10 10v247.992188c0 5.523438 4.480468 10 10 10h368c5.523437 0 10-4.476562 10-10v-211.125h19.636718c.121094 0 .242188-.007812.363282-.007812v241.125h-428v-287.976563c0-11.027344 8.972656-20 20-20h49.003906c5.523438 0 10-4.476563 10-10s-4.476562-10-10-10h-49.003906c-22.054688 0-40 17.941406-40 40v287.976563h-11.996094c-5.523438 0-10 4.480468-10 10v18.253906c0 26.328125 21.417969 47.746094 47.746094 47.746094h416.507812c26.328125 0 47.746094-21.417969 47.746094-47.746094v-18.253906c0-5.519532-4.476562-10-10-10h-12.003906v-246.34375c13.105468-7.214844 22.003906-21.15625 22.003906-37.140626zm-20 311.738282c0 15.300781-12.445312 27.746094-27.746094 27.746094h-416.507812c-15.300782 0-27.746094-12.445313-27.746094-27.746094v-8.253906h472zm-62.003906-68.246094h-348v-227.992188h107.8125c6.203125 15.714844 21.527344 26.867188 39.421875 26.867188h200.765625zm-200.765625-221.125c-12.335938 0-22.371094-10.035156-22.371094-22.367188v-110.078124c0-12.332032 10.035156-22.367188 22.371094-22.367188h240.402343c12.332032 0 22.367188 10.035156 22.367188 22.367188v110.078124c0 12.332032-10.035156 22.367188-22.367188 22.367188zm0 0"/><path d="m391.996094 349c5.523437 0 10-4.476562 10-10v-53.578125c0-5.519531-4.476563-10-10-10-5.519532 0-10 4.480469-10 10v53.578125c0 5.523438 4.480468 10 10 10zm0 0"/><path d="m392 254.480469c2.628906 0 5.199219-1.070313 7.070312-2.929688 1.859376-1.871093 2.929688-4.441406 2.929688-7.070312 0-2.640625-1.070312-5.210938-2.929688-7.078125-1.871093-1.863282-4.441406-2.929688-7.070312-2.929688-2.640625 0-5.210938 1.066406-7.070312 2.929688-1.871094 1.867187-2.929688 4.4375-2.929688 7.078125 0 2.628906 1.058594 5.199219 2.929688 7.070312 1.859374 1.859375 4.429687 2.929688 7.070312 2.929688zm0 0"/><path d="m210.128906 254.394531v76.578125c0 8.527344 4.644532 16.367188 12.128906 20.460938 3.496094 1.910156 7.34375 2.859375 11.1875 2.859375 4.382813 0 8.757813-1.234375 12.582032-3.6875l59.738281-38.292969c6.722656-4.308594 10.734375-11.644531 10.734375-19.628906s-4.011719-15.324219-10.734375-19.628906l-59.738281-38.292969c-7.179688-4.601563-16.289063-4.917969-23.769532-.828125-7.480468 4.09375-12.128906 11.929687-12.128906 20.460937zm20 0c0-1.710937 1.082032-2.558593 1.726563-2.910156.359375-.199219.925781-.429687 1.609375-.429687.535156 0 1.136718.140624 1.769531.546874l59.738281 38.289063c1.328125.851563 1.527344 2.117187 1.527344 2.792969 0 .675781-.199219 1.941406-1.527344 2.792968l-59.738281 38.289063c-1.4375.921875-2.738281.472656-3.382813.117187-.644531-.351562-1.722656-1.199218-1.722656-2.910156zm0 0"/><path d="m272.648438 124h-18v-62c0-5.523438-4.476563-10-10-10-5.519532 0-10 4.476562-10 10v72c0 5.523438 4.480468 10 10 10h28c5.523437 0 10-4.476562 10-10s-4.476563-10-10-10zm0 0"/><path d="m459.648438 72c5.523437 0 10-4.476562 10-10s-4.476563-10-10-10h-28c-5.519532 0-10 4.476562-10 10v72c0 5.523438 4.480468 10 10 10h28c5.523437 0 10-4.476562 10-10s-4.476563-10-10-10h-18v-16h7.335937c5.519531 0 10-4.476562 10-10s-4.480469-10-10-10h-7.335937v-16zm0 0"/><path d="m396.097656 52.554688c-5.21875-1.8125-10.914062.949218-12.726562 6.167968l-15.554688 44.792969-15.550781-44.792969c-1.8125-5.21875-7.507813-7.980468-12.730469-6.167968-5.214844 1.8125-7.976562 7.507812-6.164062 12.726562l25 72c1.394531 4.023438 5.1875 6.71875 9.445312 6.71875 4.257813 0 8.050782-2.695312 9.445313-6.71875l25-72c1.8125-5.21875-.945313-10.917969-6.164063-12.726562zm0 0"/><path d="m308.984375 52c-5.523437 0-10 4.476562-10 10v72c0 5.523438 4.476563 10 10 10 5.519531 0 10-4.476562 10-10v-72c0-5.523438-4.476563-10-10-10zm0 0"/></svg>